<?xml version="1.0" encoding="UTF-8"?>
<svg id="Layer_1" xmlns="http://www.w3.org/2000/svg" version="1.1" viewBox="0 0 756 276">
  <!-- Generator: Adobe Illustrator 29.0.1, SVG Export Plug-In . SVG Version: 2.1.0 Build 192)  -->
  <defs>
    <style>
      .st0 {
        fill: #fff;
      }
    </style>
  </defs>
  <path class="st0" d="M111,45v-20H25v106h26v-40h54v40h26v-46h-20v-14h20v-26h-20ZM105,51v14h-54v-14h54ZM231,45v-20h-66v20h-20v66h20v20h66v-20h20V45h-20ZM225,88v17h-54v-54h54v37ZM351,45v-20h-86v106h86v-20h20v-26h-20v-14h20v-26h-20ZM291,91h54v14h-54v-14ZM291,65v-14h54v14h-54ZM491,25v26h-80v14h40v26h-40v14h80v26h-106V25h106ZM591,45v-20h-86v106h26v-40h54v40h26v-46h-20v-14h20v-26h-20ZM585,51v14h-54v-14h54ZM731,25v26h-40v80h-26V51h-40v-26h106ZM131,145v26H51v54h54v-14h-40v-26h66v66H45v-20h-20v-66h20v-20h86ZM231,165v-20h-86v106h26v-40h54v40h26v-46h-20v-14h20v-26h-20ZM225,171v14h-54v-14h54ZM351,165v-20h-66v20h-20v86h26v-20h54v20h26v-86h-20ZM291,188v-17h54v34h-54v-17ZM491,165v26h-26v-20h-54v54h54v-20h26v26h-20v20h-66v-20h-20v-66h20v-20h66v20h20ZM571,145v26h-20v54h20v26h-66v-26h20v-54h-20v-26h66ZM671,165v-20h-66v20h-20v86h26v-20h54v20h26v-86h-20ZM611,188v-17h54v34h-54v-17ZM731,251h-26v-26h26v26Z"/>
</svg>