<?xml version="1.0" encoding="UTF-8"?>
<svg id="Layer_1" xmlns="http://www.w3.org/2000/svg" version="1.1" viewBox="0 0 1184.6 104.5">
  <!-- Generator: Adobe Illustrator 29.0.1, SVG Export Plug-In . SVG Version: 2.1.0 Build 192)  -->
  <defs>
    <style>
      .st0 {
        fill: #fff;
      }
    </style>
  </defs>
  <path class="st0" d="M83,0H20v20H0v83h23v-20h57v20h23V20h-20V0ZM80,60H23V23h57v37Z"/>
  <polygon class="st0" points="200.2 60 183.2 60 183.2 40 163.2 40 163.2 20 143.2 20 143.2 0 120.2 0 120.2 103 143.2 103 143.2 43 160.2 43 160.2 63 180.2 63 180.2 83 200.2 83 200.2 103 223.2 103 223.2 0 200.2 0 200.2 60"/>
  <path class="st0" d="M403.6,0h-63v20h-20v83h23v-20h57v20h23V20h-20V0ZM400.6,60h-57V23h57v37Z"/>
  <polygon class="st0" points="460.7 20 440.7 20 440.7 43 460.7 43 460.7 63 520.7 63 520.7 78.5 439.2 78.5 439.2 104.5 525.2 104.5 525.2 83 543.7 83 543.7 60 523.7 60 523.7 40 463.7 40 463.7 23 543.7 23 543.7 0 460.7 0 460.7 20"/>
  <path class="st0" d="M643.9,0h-83v103h23v-40h60v-20h20v-23h-20V0ZM583.9,40v-17h57v17h-57Z"/>
  <polygon class="st0" points="681 23 701 23 701 80 681 80 681 103 744 103 744 80 724 80 724 23 744 23 744 0 681 0 681 23"/>
  <path class="st0" d="M844.2,0h-83v103h23v-40h57v40h23v-43h-20v-17h20v-23h-20V0ZM784.2,40v-17h57v17h-57Z"/>
  <polygon class="st0" points="881.4 23 901.4 23 901.4 80 881.4 80 881.4 103 944.4 103 944.4 80 924.4 80 924.4 23 944.4 23 944.4 0 881.4 0 881.4 23"/>
  <polygon class="st0" points="1041.5 60 1024.5 60 1024.5 40 1004.5 40 1004.5 20 984.5 20 984.5 0 961.5 0 961.5 103 984.5 103 984.5 43 1001.5 43 1001.5 63 1021.5 63 1021.5 83 1041.5 83 1041.5 103 1064.5 103 1064.5 0 1041.5 0 1041.5 60"/>
  <polygon class="st0" points="1104.6 80 1104.6 23 1184.6 23 1184.6 0 1101.6 0 1101.6 20 1081.6 20 1081.6 83 1101.6 83 1101.6 103 1184.6 103 1184.6 40 1121.6 40 1121.6 63 1161.6 63 1161.6 80 1104.6 80"/>
</svg>