<?xml version="1.0" encoding="UTF-8"?>
<svg id="Layer_1" xmlns="http://www.w3.org/2000/svg" version="1.1" xmlns:xlink="http://www.w3.org/1999/xlink" viewBox="0 0 2148.7 106">
  <!-- Generator: Adobe Illustrator 29.0.1, SVG Export Plug-In . SVG Version: 2.1.0 Build 192)  -->
  <defs>
    <style>
      .st0 {
        fill: url(#linear-gradient2);
      }

      .st1 {
        fill: url(#linear-gradient10);
      }

      .st2 {
        fill: url(#linear-gradient1);
      }

      .st3 {
        fill: url(#linear-gradient9);
      }

      .st4 {
        fill: url(#linear-gradient8);
      }

      .st5 {
        fill: url(#linear-gradient11);
      }

      .st6 {
        fill: url(#linear-gradient16);
      }

      .st7 {
        fill: url(#linear-gradient12);
      }

      .st8 {
        fill: #d61d50;
      }

      .st9 {
        fill: url(#linear-gradient7);
      }

      .st10 {
        fill: url(#linear-gradient4);
      }

      .st11 {
        fill: url(#linear-gradient14);
      }

      .st12 {
        fill: url(#linear-gradient5);
      }

      .st13 {
        fill: url(#linear-gradient3);
      }

      .st14 {
        fill: url(#linear-gradient15);
      }

      .st15 {
        fill: url(#linear-gradient17);
      }

      .st16 {
        fill: url(#linear-gradient6);
      }

      .st17 {
        fill: url(#linear-gradient13);
      }

      .st18 {
        fill: url(#linear-gradient);
      }
    </style>
    <linearGradient id="linear-gradient" x1="53" y1="104.5" x2="53" y2="1.5" gradientUnits="userSpaceOnUse">
      <stop offset="0" stop-color="#a11c47"/>
      <stop offset="1" stop-color="#d61d50"/>
    </linearGradient>
    <linearGradient id="linear-gradient1" x1="173.2" x2="173.2" xlink:href="#linear-gradient"/>
    <linearGradient id="linear-gradient2" x1="293.3" x2="293.3" xlink:href="#linear-gradient"/>
    <linearGradient id="linear-gradient3" x1="413.5" x2="413.5" xlink:href="#linear-gradient"/>
    <linearGradient id="linear-gradient4" x1="513.6" y1="64.5" x2="513.6" y2="41.5" xlink:href="#linear-gradient"/>
    <linearGradient id="linear-gradient5" x1="613.6" x2="613.6" xlink:href="#linear-gradient"/>
    <linearGradient id="linear-gradient6" x1="733.8" x2="733.8" xlink:href="#linear-gradient"/>
    <linearGradient id="linear-gradient7" x1="854" x2="854" xlink:href="#linear-gradient"/>
    <linearGradient id="linear-gradient8" x1="974.1" x2="974.1" xlink:href="#linear-gradient"/>
    <linearGradient id="linear-gradient9" x1="1094.3" x2="1094.3" xlink:href="#linear-gradient"/>
    <linearGradient id="linear-gradient10" x1="1294.6" x2="1294.6" xlink:href="#linear-gradient"/>
    <linearGradient id="linear-gradient11" x1="1414.8" x2="1414.8" xlink:href="#linear-gradient"/>
    <linearGradient id="linear-gradient12" x1="1534.9" x2="1534.9" xlink:href="#linear-gradient"/>
    <linearGradient id="linear-gradient13" x1="1635.1" x2="1635.1" xlink:href="#linear-gradient"/>
    <linearGradient id="linear-gradient14" x1="1735.3" x2="1735.3" xlink:href="#linear-gradient"/>
    <linearGradient id="linear-gradient15" x1="1855.4" x2="1855.4" xlink:href="#linear-gradient"/>
    <linearGradient id="linear-gradient16" x1="1975.6" x2="1975.6" xlink:href="#linear-gradient"/>
    <linearGradient id="linear-gradient17" x1="2095.7" x2="2095.7" xlink:href="#linear-gradient"/>
  </defs>
  <g>
    <polygon class="st18" points="1.5 104.5 24.5 104.5 24.5 64.5 64.5 64.5 64.5 41.5 24.5 41.5 24.5 24.5 104.5 24.5 104.5 1.5 1.5 1.5 1.5 104.5"/>
    <path class="st8" d="M26,106H0V0h106v26H26v14h40v26H26v40ZM3,103h20v-40h40v-20H23v-20h80V3H3v100Z"/>
  </g>
  <g>
    <polygon class="st2" points="201.7 81.5 144.7 81.5 144.7 1.5 121.7 1.5 121.7 84.5 141.7 84.5 141.7 104.5 204.7 104.5 204.7 84.5 224.7 84.5 224.7 1.5 201.7 1.5 201.7 81.5"/>
    <path class="st8" d="M206.2,106h-66v-20h-20V0h26v80h54V0h26v86h-20v20ZM143.2,103h60v-20h-60V3h-20v80h20v20ZM203.2,83h20V3h-20v80Z"/>
  </g>
  <g>
    <polygon class="st0" points="264.8 1.5 241.8 1.5 241.8 104.5 344.8 104.5 344.8 81.5 264.8 81.5 264.8 1.5"/>
    <path class="st8" d="M346.3,106h-106V0h26v80h80v26ZM243.3,103h100v-20h-80V3h-20v100Z"/>
  </g>
  <g>
    <polygon class="st13" points="385 1.5 362 1.5 362 104.5 465 104.5 465 81.5 385 81.5 385 1.5"/>
    <path class="st8" d="M466.5,106h-106V0h26v80h80v26ZM363.5,103h100v-20h-80V3h-20v100Z"/>
  </g>
  <g>
    <rect class="st10" x="482.1" y="41.5" width="63" height="23"/>
    <path class="st8" d="M546.6,66h-66v-26h66v26ZM483.6,63h60v-20h-60v20Z"/>
  </g>
  <g>
    <polygon class="st12" points="582.1 21.5 562.1 21.5 562.1 44.5 582.1 44.5 582.1 64.5 642.1 64.5 642.1 81.5 562.1 81.5 562.1 104.5 645.1 104.5 645.1 84.5 665.1 84.5 665.1 61.5 645.1 61.5 645.1 41.5 585.1 41.5 585.1 24.5 665.1 24.5 665.1 1.5 582.1 1.5 582.1 21.5"/>
    <path class="st8" d="M646.6,106h-86v-26h80v-14h-60v-20h-20v-26h20V0h86v26h-80v14h60v20h20v26h-20v20ZM563.6,103h80v-20h20v-20h-20v-20h-60v-20h-20v20h20v20h60v20h-80v20ZM583.6,23h80V3h-80v20Z"/>
  </g>
  <g>
    <polygon class="st16" points="682.3 24.5 722.3 24.5 722.3 104.5 745.3 104.5 745.3 24.5 785.3 24.5 785.3 1.5 682.3 1.5 682.3 24.5"/>
    <path class="st8" d="M746.8,106h-26V26h-40V0h106v26h-40v80ZM723.8,103h20V23h40V3h-100v20h40v80Z"/>
  </g>
  <g>
    <path class="st9" d="M885.5,1.5h-63v20h-20v83h23v-20h57v20h23V21.5h-20V1.5ZM882.5,61.5h-57V24.5h57v37Z"/>
    <path class="st8" d="M907,106h-26v-20h-54v20h-26V20h20V0h66v20h20v86ZM884,103h20V23h-20V3h-60v20h60v40h-60V23h-20v80h20v-20h60v20ZM827,60h54V26h-54v34Z"/>
  </g>
  <g>
    <polygon class="st4" points="1005.6 1.5 942.6 1.5 942.6 21.5 922.6 21.5 922.6 84.5 942.6 84.5 942.6 104.5 1005.6 104.5 1005.6 84.5 1025.6 84.5 1025.6 61.5 1002.6 61.5 1002.6 81.5 945.6 81.5 945.6 24.5 1002.6 24.5 1002.6 44.5 1025.6 44.5 1025.6 21.5 1005.6 21.5 1005.6 1.5"/>
    <path class="st8" d="M1007.1,106h-66v-20h-20V20h20V0h66v20h20v26h-26v-20h-54v54h54v-20h26v26h-20v20ZM944.1,103h60v-20h-60V23h60v20h20v-20h-20V3h-60v20h-20v60h20v20ZM1004.1,83h20v-20h-20v20Z"/>
  </g>
  <g>
    <polygon class="st3" points="1122.8 21.5 1102.8 21.5 1102.8 41.5 1065.8 41.5 1065.8 1.5 1042.8 1.5 1042.8 104.5 1065.8 104.5 1065.8 64.5 1102.8 64.5 1102.8 84.5 1122.8 84.5 1122.8 104.5 1145.8 104.5 1145.8 81.5 1125.8 81.5 1125.8 61.5 1105.8 61.5 1105.8 44.5 1125.8 44.5 1125.8 24.5 1145.8 24.5 1145.8 1.5 1122.8 1.5 1122.8 21.5"/>
    <path class="st8" d="M1147.3,106h-26v-20h-20v-20h-34v40h-26V0h26v40h34v-20h20V0h26v26h-20v20h-20v14h20v20h20v26ZM1124.3,103h20v-20h-20v-20h-20v-20h20v-20h-20v20h-40V3h-20v100h20v-40h40v20h20v20ZM1124.3,23h20V3h-20v20Z"/>
  </g>
  <g>
    <polygon class="st1" points="1243.1 104.5 1346.1 104.5 1346.1 81.5 1266.1 81.5 1266.1 64.5 1306.1 64.5 1306.1 41.5 1266.1 41.5 1266.1 24.5 1346.1 24.5 1346.1 1.5 1243.1 1.5 1243.1 104.5"/>
    <path class="st8" d="M1347.6,106h-106V0h106v26h-80v14h40v26h-40v14h80v26ZM1244.6,103h100v-20h-80v-20h40v-20h-40v-20h80V3h-100v100Z"/>
  </g>
  <g>
    <polygon class="st5" points="1443.3 61.5 1426.3 61.5 1426.3 41.5 1406.3 41.5 1406.3 21.5 1386.3 21.5 1386.3 1.5 1363.3 1.5 1363.3 104.5 1386.3 104.5 1386.3 44.5 1403.3 44.5 1403.3 64.5 1423.3 64.5 1423.3 84.5 1443.3 84.5 1443.3 104.5 1466.3 104.5 1466.3 1.5 1443.3 1.5 1443.3 61.5"/>
    <path class="st8" d="M1467.8,106h-26v-20h-20v-20h-20v-20h-14v60h-26V0h26v20h20v20h20v20h14V0h26v106ZM1444.8,103h20V3h-20v60h-20v-20h-20v-20h-20V3h-20v100h20v-60h20v20h20v20h20v20Z"/>
  </g>
  <g>
    <polygon class="st7" points="1503.4 21.5 1483.4 21.5 1483.4 84.5 1503.4 84.5 1503.4 104.5 1586.4 104.5 1586.4 41.5 1523.4 41.5 1523.4 64.5 1563.4 64.5 1563.4 81.5 1506.4 81.5 1506.4 24.5 1586.4 24.5 1586.4 1.5 1503.4 1.5 1503.4 21.5"/>
    <path class="st8" d="M1587.9,106h-86v-20h-20V20h20V0h86v26h-80v54h54v-14h-40v-26h66v66ZM1504.9,103h80v-60h-60v20h40v20h-60V23h-20v60h20v20ZM1504.9,23h80V3h-80v20Z"/>
  </g>
  <g>
    <polygon class="st17" points="1603.6 24.5 1623.6 24.5 1623.6 81.5 1603.6 81.5 1603.6 104.5 1666.6 104.5 1666.6 81.5 1646.6 81.5 1646.6 24.5 1666.6 24.5 1666.6 1.5 1603.6 1.5 1603.6 24.5"/>
    <path class="st8" d="M1668.1,106h-66v-26h20V26h-20V0h66v26h-20v54h20v26ZM1605.1,103h60v-20h-20V23h20V3h-60v20h20v60h-20v20Z"/>
  </g>
  <g>
    <polygon class="st11" points="1763.8 61.5 1746.8 61.5 1746.8 41.5 1726.8 41.5 1726.8 21.5 1706.8 21.5 1706.8 1.5 1683.8 1.5 1683.8 104.5 1706.8 104.5 1706.8 44.5 1723.8 44.5 1723.8 64.5 1743.8 64.5 1743.8 84.5 1763.8 84.5 1763.8 104.5 1786.8 104.5 1786.8 1.5 1763.8 1.5 1763.8 61.5"/>
    <path class="st8" d="M1788.3,106h-26v-20h-20v-20h-20v-20h-14v60h-26V0h26v20h20v20h20v20h14V0h26v106ZM1765.3,103h20V3h-20v60h-20v-20h-20v-20h-20V3h-20v100h20v-60h20v20h20v20h20v20Z"/>
  </g>
  <g>
    <polygon class="st14" points="1803.9 104.5 1906.9 104.5 1906.9 81.5 1826.9 81.5 1826.9 64.5 1866.9 64.5 1866.9 41.5 1826.9 41.5 1826.9 24.5 1906.9 24.5 1906.9 1.5 1803.9 1.5 1803.9 104.5"/>
    <path class="st8" d="M1908.4,106h-106V0h106v26h-80v14h40v26h-40v14h80v26ZM1805.4,103h100v-20h-80v-20h40v-20h-40v-20h80V3h-100v100Z"/>
  </g>
  <g>
    <polygon class="st6" points="1924.1 104.5 2027.1 104.5 2027.1 81.5 1947.1 81.5 1947.1 64.5 1987.1 64.5 1987.1 41.5 1947.1 41.5 1947.1 24.5 2027.1 24.5 2027.1 1.5 1924.1 1.5 1924.1 104.5"/>
    <path class="st8" d="M2028.6,106h-106V0h106v26h-80v14h40v26h-40v14h80v26ZM1925.6,103h100v-20h-80v-20h40v-20h-40v-20h80V3h-100v100Z"/>
  </g>
  <g>
    <path class="st15" d="M2147.2,44.5v-23h-20V1.5h-83v103h23v-40h57v40h23v-43h-20v-17h20ZM2067.2,41.5v-17h57v17h-57Z"/>
    <path class="st8" d="M2148.7,106h-26v-40h-54v40h-26V0h86v20h20v26h-20v14h20v46ZM2125.7,103h20v-40h-20v-20h20v-20h-20V3h-80v100h20v-40h60v40ZM2125.7,43h-60v-20h60v20ZM2068.7,40h54v-14h-54v14Z"/>
  </g>
</svg>