<?xml version="1.0" encoding="UTF-8"?>
<svg id="Layer_1" xmlns="http://www.w3.org/2000/svg" version="1.1" viewBox="0 0 521 103">
  <!-- Generator: Adobe Illustrator 29.0.1, SVG Export Plug-In . SVG Version: 2.1.0 Build 192)  -->
  <defs>
    <style>
      .st0 {
        fill: #fff;
      }
    </style>
  </defs>
  <path class="st0" d="M521,0v103h-23v-60h-17v20h-23v-20h-17v60h-23V0h23v20h20v20h17v-20h20V0h23ZM338,23h20v57h-20v23h63v-23h-20V23h20V0h-63v23ZM200,103h23v-23h-23v23ZM80,40H23V0H0v103h23v-40h57v40h23V0h-23v40ZM120,23h20v57h-20v23h63v-23h-20V23h20V0h-63v23ZM200,63h23V0h-23v63Z"/>
</svg>